<svg xmlns="http://www.w3.org/2000/svg" xmlns:xlink="http://www.w3.org/1999/xlink" version="1.1" id="Layer_1" x="0px" y="0px" width="198.287px" height="34.016px" viewBox="0 0 198.287 34.016" enable-background="new 0 0 198.287 34.016" xml:space="preserve" class="svg img-responsive replaced-svg">
<g>
	<path fill="#37A93F" d="M188.347,7.832c-4.236,0-6.797,1.667-8.147,2.684V0h-6.518v33.585h6.518V21.846   c0-4.889,2.118-7.496,6.192-7.496c4.073,0,5.54,3.57,5.54,7.17v12.065h6.354V18.423C198.286,10.765,193.235,7.832,188.347,7.832"></path>
	<path fill="#37A93F" d="M131.174,7.937c-6.725,0-12.303,5.838-12.303,13.04   c0,7.201,5.703,13.039,12.55,13.039c4.153,0,8.01-1.94,10.399-4.965l-5.654-3.264c0,0-1.734,2.029-4.8,2.029   c-3.697,0-5.539-2.665-6.085-3.91h17.862c0.218-0.942,0.332-1.922,0.332-2.93C143.476,13.775,138.022,7.937,131.174,7.937    M125.365,18.529c0.645-2.738,2.995-4.382,5.809-4.382c2.824,0,5.152,1.644,5.795,4.382H125.365z"></path>
	<path fill="#37A93F" d="M159.732,14.501c2.1,0,3.966,0.991,5.156,2.532l5.127-3.963   c-2.377-3.071-6.1-5.049-10.284-5.049c-7.178,0-12.996,5.819-12.996,12.998c0,7.178,5.818,12.996,12.996,12.996   c4.185,0,7.907-1.977,10.284-5.049l-5.127-3.962c-1.19,1.541-3.059,2.532-5.156,2.532c-3.601,0-6.52-2.919-6.52-6.518v-0.009   C153.218,17.416,156.135,14.501,159.732,14.501"></path>
	<path fill="#0F1419" class="braftechBlack" d="M35.856,11.779V8.181h-6.518v25.404h6.518V21.099   c0-3.6,2.918-6.518,6.518-6.518V8.063C38.647,8.063,35.856,11.779,35.856,11.779"></path>
	<path fill="#0F1419" class="braftechBlack" d="M13.039,7.937c-2.38,0-4.612,0.637-6.533,1.753H6.505V0H0v33.585h6.506v-1.322   c0,0,0,0,0.001,0c1.921,1.116,4.153,1.753,6.533,1.753c7.202,0,13.041-5.837,13.041-13.039S20.241,7.937,13.039,7.937    M13.039,27.511c-3.608,0-6.533-2.927-6.533-6.534c0-3.609,2.925-6.534,6.533-6.534c3.609,0,6.535,2.925,6.535,6.534   C19.574,24.584,16.648,27.511,13.039,27.511"></path>
	<path fill="#0F1419" class="braftechBlack" d="M68.423,20.957V8.611h-4.847V9.69c-1.921-1.115-4.153-1.754-6.534-1.754   c-7.202,0-13.039,5.838-13.039,13.04s5.837,13.039,13.039,13.039c2.381,0,4.613-0.639,6.534-1.754v1.323h4.847V20.996   c0-0.007,0.001-0.013,0.001-0.02S68.423,20.964,68.423,20.957 M57.042,27.511c-3.608,0-6.534-2.927-6.534-6.534   c0-3.609,2.926-6.534,6.534-6.534c3.606,0,6.529,2.92,6.534,6.525v0.019C63.571,24.591,60.648,27.511,57.042,27.511"></path>
	<rect x="89.582" y="27.087" fill="#37A93F" width="6.498" height="6.499"></rect>
	<polygon fill="#37A93F" points="115.574,7.59 109.077,7.586 109.077,14.084 115.574,14.089  "></polygon>
	<rect x="102.578" y="1.086" fill="#37A93F" width="6.499" height="6.499"></rect>
	<path fill="#37A93F" d="M109.077,14.084H96.08v6.5h6.499v7.017c0,3.303,2.677,5.98,5.979,5.98   l7.017,0.004v-6.502h-6.497V14.084z"></path>
	<path fill="#0F1419" class="braftechBlack" d="M83.084,14.089c0-1.795,0.728-3.419,1.902-4.595   c1.177-1.176,2.802-1.904,4.595-1.904h0.001V1.092h-6.498V7.59h-6.499v6.499h-3.249v6.5h3.249v12.997h6.499V20.589h6.499v-6.5   H83.084z"></path>
</g>
</svg>